<svg xmlns="http://www.w3.org/2000/svg" viewBox="0 0 270 60" preserveAspectRatio="xMinYMid meet">
  <g fill="#023625">
    <!-- YITZAK Shield Emblem (Crisp vector paths, 1:1.15 proportion) -->
    <g transform="translate(2, 2) scale(0.24)">
      <!-- Outer Shield Border -->
      <path fill-rule="evenodd" d="
        M 100 12
        C 132 28, 164 36, 185 48
        C 185 122, 158 190, 100 230
        C 42 190, 15 122, 15 48
        C 36 36, 68 28, 100 12 Z

        M 100 34
        C 126 47, 151 54, 166 64
        C 166 122, 144 176, 100 210
        C 56 176, 34 122, 34 64
        C 49 54, 74 47, 100 34 Z
      " />

      <!-- Center Checkmark -->
      <path d="
        M 56 116
        L 86 150
        L 150 72
        L 136 61
        L 86 130
        L 67 107 Z
      " />

      <!-- Left Leaf Motif -->
      <path d="
        M 100 198
        C 72 184, 48 170, 42 144
        C 58 147, 80 168, 100 198 Z
      " />

      <!-- Right Leaf Motif -->
      <path d="
        M 100 198
        C 128 184, 152 170, 158 144
        C 142 147, 120 168, 100 198 Z
      " />
    </g>

    <!-- Vector Wordmark YITZAK (Crisp geometric paths, zero font dependency) -->
    <!-- Y -->
    <path d="M 60 13 L 70 13 L 78 28 L 86 13 L 96 13 L 83 33 V 46 H 73 V 33 Z" />
    <!-- I -->
    <path d="M 101 13 H 111 V 46 H 101 Z" />
    <!-- T -->
    <path d="M 116 13 H 148 V 22 H 137 V 46 H 127 V 22 H 116 Z" />
    <!-- Z -->
    <path d="M 153 13 H 185 V 21 L 166 37 H 185 V 46 H 153 V 38 L 172 21 H 153 Z" />
    <!-- A -->
    <path d="M 199 13 L 215 46 H 204 L 201 38 H 191 L 188 46 H 178 L 194 13 Z M 196 23 L 193 30 H 199 Z" />
    <!-- K -->
    <path d="M 220 13 H 230 V 25 L 244 13 H 256 L 237 28 L 257 46 H 244 L 230 29 V 46 H 220 Z" />
  </g>
</svg>
